# xmcd
#
# Track frame offsets:
#	150
#	12385
#	23463
#	35778
#	49555
#	61648
#	75418
#	87033
#	99025
#	112393
#	126193
#	139785
#	152885
#	165950
#
# Disc length: 2390
#
# Revision: 3
# Processed by: cddbd v1.5.1PL0 Copyright (c) Steve Scherf et al.
# Submitted via: ExactAudioCopy v0.95a5
# Normalized: r2:DSETVAR1
#
DISCID=9e09540e
DTITLE=Various Artist - The Original Blues Hits 1
DYEAR=1991
DGENRE=Blues
TTITLE0=John Lee Hooker - In The Mood
TTITLE1=Lowell Fulson - Blue Shadows
TTITLE2=Little Walter - My Babe
TTITLE3=Etta James - At Last
TTITLE4=Howlin' Wolf - How Many More Years
TTITLE5=Muddy Waters - I'm Ready
TTITLE6=Sonny Boy Williamson - Don't Start Me Talkin'
TTITLE7=Memphis Slim - Mother Earth
TTITLE8=Little Milton - Who's Cheating Who
TTITLE9=Little Walter - You're So Fine
TTITLE10=Etta James - Trust In Me
TTITLE11=Muddy Waters - Mannish Boy (live)
TTITLE12=Howlin' Wolf - I Asked For Water
TTITLE13=Koko Taylor - Wang Dang Doodle
EXTD=
EXTT0=John Lee Hooker
EXTT1=Lowell Fulson
EXTT2=Little Walter
EXTT3=Etta James
EXTT4=Howlin' Wolf
EXTT5=Muddy Waters
EXTT6=Sonny Boy Williamson
EXTT7=Memphis Slim
EXTT8=Little Milton
EXTT9=Little Walter
EXTT10=Etta James
EXTT11=Muddy Waters
EXTT12=Howlin' Wolf
EXTT13=Koko Taylor
PLAYORDER=
